<?xml version="1.0" encoding="UTF-8"?>
<!--
OpenPantheon: the pantheon for Education
Copyright (C) 2022 Learning Planet Institute

This program is free software: you can redistribute it and/or modify
it under the terms of the GNU Affero General Public License as published
by the Free Software Foundation, either version 3 of the License, or
(at your option) any later version.

This program is distributed in the hope that it will be useful,
but WITHOUT ANY WARRANTY; without even the implied warranty of
MERCHANTABILITY or FITNESS FOR A PARTICULAR PURPOSE.  See the
GNU Affero General Public License for more details.

You should have received a copy of the GNU Affero General Public License
along with this program.  If not, see <https://www.gnu.org/licenses/>.
-->
<svg width="200" height="62" xmlns="http://www.w3.org/2000/svg"><g fill="none" fill-rule="evenodd"><text font-family="ApfelGrotezk-Fett, Apfel Grotezk" font-size="24" font-weight="bold" fill="#FFF">
                        <tspan x="36" y="21">Open Pantheon</tspan>
                    </text><g><circle fill="#FFF" cx="5.5" cy="5.5" r="5.5"/><circle fill="#61E987" cx="20.5" cy="5.5" r="5.5"/><circle fill="#61E987" cx="5.5" cy="19.5" r="5.5"/><circle fill="#61E987" cx="20.5" cy="19.5" r="5.5"/></g><g fill-rule="nonzero"><path d="M127.849 49c1.624 0 3.011.426 3.77 1.262l.023.027.059.066-1.36 1.709-.084-.092c-.578-.627-1.27-.957-2.142-.957-1.763 0-2.775.998-2.775 2.66v.077l.001.073.002.07v.035l.004.066.001.032.004.063c.03.441.129.713.383 1.116.413.651 1.023 1.016 1.963 1.153.393.057.828.004 1.243-.128a2.84 2.84 0 0 0 .49-.206l.03-.017.027-.017a.887.887 0 0 0 .023-.015l.019-.014.012-.01V53.57h2.127v3.683l-.053.03c-1.33.78-2.628 1.172-3.893 1.172-2.804 0-4.86-2.045-4.86-4.78 0-2.67 2.177-4.675 4.986-4.675Zm-64.274.057v7.336h3.95v2.047h-6.432v-9.383h2.482Zm34.389 0h2.236l4.226 5.639v-5.64h2.308v9.384h-2.14l-4.34-5.643v5.643h-2.29v-9.383Zm14.922 0h2.237l4.226 5.639v-5.64h2.308v9.384h-2.14l-4.34-5.643v5.643h-2.29v-9.383Zm-36.759 0v1.938h-4.901v1.743h4.443v1.978h-4.443v1.765h5.047v1.958h-7.608v-9.382h7.462Zm34.896 0v9.382h-2.414v-9.382h2.414Zm-22.782 0h3.763c1.226 0 2.17.15 2.915.546.958.51 1.48 1.4 1.48 2.736 0 .834-.19 1.487-.553 2.011-.26.376-.588.668-1.045.963l-.045.029-.04.025 1.975 3.069h-2.828l-1.357-2.638h-1.807v2.638H88.24m-7.393-9.38h2.57l3.966 9.378h-2.652l-.638-1.63h-4.117l-.59 1.63h-2.686l4.147-9.377Zm64.584 0v7.337h3.949v2.047h-6.43v-9.383h2.48Zm15.515 0h2.237l4.225 5.64v-5.64h2.309v9.384h-2.14l-4.34-5.643v5.643h-2.29v-9.383Zm27.031 0v2.011l-2.84.059v7.313h-2.383v-7.37h-2.823v-2.012h8.046Zm-50.283 0c1.154 0 2.074.192 2.761.64.824.536 1.273 1.422 1.298 2.706.024 1.283-.42 2.216-1.256 2.808-.7.495-1.652.733-2.746.741H136.26v2.488h-2.455v-9.382h3.889Zm41.357 0v1.94h-4.902v1.742h4.444v1.978h-4.444v1.765h5.048v1.958h-7.608v-9.382h7.462Zm-25.345 0h2.57l3.966 9.378h-2.652l-.638-1.63h-4.117l-.59 1.63h-2.686l4.147-9.377ZM82.067 51.6l-1.306 3.307h2.564l-1.259-3.307Zm72.859 0-1.306 3.307h2.564l-1.258-3.307Zm-62.561-.635h-1.671v2.932h1.682c1.045 0 1.683-.551 1.683-1.461 0-.882-.65-1.46-1.663-1.47h-.031Zm45.44-.102h-1.561v2.909h1.561c.96 0 1.584-.58 1.584-1.475 0-.85-.618-1.422-1.555-1.434h-.029Z" fill="#FFF"/><path d="M53.395 49.006h1.667l-.294 2.26h1.78l.275-2.26h1.628l-.252 2.26h1.785l-.178 1.664h-1.823l-.211 1.707h1.77l-.135 1.672H57.57l-.284 2.151h-1.65l.268-2.15H54.15l-.29 2.15h-1.667l.297-2.15h-1.796l.163-1.673h1.83l.215-1.707h-1.797l.167-1.663h1.82l.303-2.261Zm2.859 3.927H54.55l-.2 1.6h1.721l.182-1.6Z" fill="#9AC455"/></g><text font-family="Poppins-SemiBold, Poppins" font-size="7.273" font-weight="500" letter-spacing=".501" fill="#FFF" transform="translate(0 49)">
                        <tspan x="0" y="9.818">Powered by </tspan>
                    </text></g></svg>