<?xml version="1.0" encoding="UTF-8"?>
<!--
OpenPantheon: the pantheon for Education
Copyright (C) 2021 CRI

This program is free software: you can redistribute it and/or modify
it under the terms of the GNU Affero General Public License as published
by the Free Software Foundation, either version 3 of the License, or
(at your option) any later version.

This program is distributed in the hope that it will be useful,
but WITHOUT ANY WARRANTY; without even the implied warranty of
MERCHANTABILITY or FITNESS FOR A PARTICULAR PURPOSE.  See the
GNU Affero General Public License for more details.

You should have received a copy of the GNU Affero General Public License
along with this program.  If not, see <https://www.gnu.org/licenses/>.
-->
<svg width="200px" height="62px" viewBox="0 0 200 62" version="1.1" xmlns="http://www.w3.org/2000/svg" xmlns:xlink="http://www.w3.org/1999/xlink">
    <title>38E52B99-B40B-46F7-A840-8F637FC37207@1,5x</title>
    <g id="Page-1" stroke="none" stroke-width="1" fill="none" fill-rule="evenodd">
        <g id="02_Home" transform="translate(-40.000000, -40.000000)">
            <g id="Logo" transform="translate(40.000000, 40.000000)">
                <g>
                    <text id="Open-Pantheon-Copy" font-family="ApfelGrotezk-Fett, Apfel Grotezk" font-size="24" font-weight="bold" fill="#FFFFFF">
                        <tspan x="36" y="21">Open Pantheon</tspan>
                    </text>
                    <g id="Group">
                        <circle id="Oval" fill="#FFFFFF" cx="5.5" cy="5.5" r="5.5"></circle>
                        <circle id="Oval-Copy" fill="#61E987" cx="20.5" cy="5.5" r="5.5"></circle>
                        <circle id="Oval-Copy-2" fill="#61E987" cx="5.5" cy="19.5" r="5.5"></circle>
                        <circle id="Oval-Copy-3" fill="#61E987" cx="20.5" cy="19.5" r="5.5"></circle>
                    </g>
                </g>
                <g id="Logo-/-myLearningPlanet" transform="translate(0.000000, 49.000000)">
                    <g id="Group" transform="translate(50.694163, 0.000000)" fill-rule="nonzero">
                        <path d="M77.1546175,0 C78.7786729,0 80.165855,0.425798166 80.9243253,1.26220649 L80.9480675,1.28875586 L81.0067196,1.35526763 L79.6476565,3.06394729 L79.5629075,2.97203031 C78.9847064,2.34492557 78.2931195,2.01527354 77.4211576,2.01527354 C75.6573805,2.01527354 74.6459498,3.01305647 74.6459498,4.67589646 L74.6462351,4.75219077 L74.6471271,4.82539774 L74.6486793,4.89569741 C74.648996,4.90718175 74.6493425,4.91855246 74.6497198,4.92981328 L74.6523632,4.99608959 C74.6528685,5.00692588 74.6534069,5.01765978 74.6539796,5.02829506 L74.6578352,5.09095312 C74.6885389,5.53195037 74.7866745,5.80444894 75.0412591,6.20667636 C75.4535306,6.85803889 76.0642105,7.22346438 77.0035611,7.35995838 C77.3964026,7.4170409 77.8318688,7.36420473 78.2465064,7.23229156 C78.4122163,7.17957246 78.5652723,7.11659013 78.6866052,7.05337036 C78.7044424,7.0440764 78.7213079,7.03488196 78.7370365,7.02595534 L78.766929,7.00850905 L78.7934963,6.99207608 C78.8017652,6.98680055 78.8094311,6.98174377 78.8164449,6.9769556 L78.8354813,6.96344679 L78.847858,6.95377609 L78.8478705,4.56968841 L80.9745674,4.56968841 L80.9745674,8.25278334 L80.9220049,8.28360067 C79.5916319,9.06359558 78.2937,9.45454545 77.0291477,9.45454545 C74.2249362,9.45454545 72.1696156,7.40964803 72.1696156,4.67589646 C72.1696156,2.00528835 74.3454668,0 77.1546175,0 Z M12.8809133,0.0567799691 L12.8808894,2.96033122 L12.8808529,7.39270724 L16.8300233,7.39277262 L16.8300233,9.44041151 L10.3991066,9.44041151 L10.3991066,0.0567799691 L12.8809133,0.0567799691 Z M47.2693447,0.0567799691 L49.5061132,0.0567799691 L53.7315704,5.69590724 L53.7316153,0.0567799691 L56.0398726,0.0567799691 L56.0398726,9.44001002 L53.899891,9.44001002 L49.5607502,3.79692542 L49.5607555,9.44001002 L47.2693447,9.44001002 L47.2693447,0.0567799691 Z M62.1923019,0.0567799691 L64.4290704,0.0567799691 L68.6545276,5.69590724 L68.6545725,0.0567799691 L70.9628298,0.0567799691 L70.9628298,9.44001002 L68.8228482,9.44001002 L64.4837074,3.79692542 L64.4837127,9.44001002 L62.1923019,9.44001002 L62.1923019,0.0567799691 Z M25.4332875,0.0567799691 L25.4332875,1.99534587 L20.5316482,1.99532542 L20.5316482,3.73772542 L24.9749241,3.7377899 L24.9749241,5.71629155 L20.5316482,5.71627088 L20.5316482,7.48107088 L25.5788265,7.48110925 L25.5788265,9.43859815 L17.9710444,9.43859815 L17.9710444,0.0567799691 L25.4332875,0.0567799691 Z M60.3285416,0.0567799691 L60.3285416,9.43859815 L57.9145339,9.43859815 L57.9145339,0.0567799691 L60.3285416,0.0567799691 Z M37.5468918,0.0567799691 L41.3096716,0.0567799691 C42.5355385,0.0567799691 43.479632,0.206669395 44.2245738,0.603112126 C45.1829773,1.11315484 45.7041448,2.00216042 45.7041448,3.33868793 C45.7041448,4.17317912 45.5147551,4.82600724 45.1520975,5.35030904 C44.8920208,5.7263075 44.5641246,6.0183042 44.1066695,6.31335294 L44.0619932,6.3419185 L44.0226506,6.36659815 L45.9966621,9.4357288 L43.1683422,9.4357288 L41.8118584,6.79837997 L40.0046444,6.79837997 L40.0047065,9.4357288 L37.5468918,9.4357288 M30.1535092,0.0567799691 L32.7231241,0.0567799691 L36.6898765,9.43413817 L34.037785,9.43413817 L33.3997728,7.80310724 L29.2824996,7.80310724 L28.6933059,9.43413817 L26.0069012,9.43413817 L30.1535092,0.0567799691 Z M94.7377226,0.0567799691 L94.7376623,7.39270724 L98.6868327,7.39277262 L98.6868327,9.44041151 L92.255916,9.44041151 L92.255916,0.0567799691 L94.7377226,0.0567799691 Z M110.253002,0.0567799691 L112.489771,0.0567799691 L116.715228,5.69590724 L116.715273,0.0567799691 L119.02353,0.0567799691 L119.02353,9.44001002 L116.883549,9.44001002 L112.544408,3.79692542 L112.544413,9.44001002 L110.253002,9.44001002 L110.253002,0.0567799691 Z M137.284037,0.0567799691 L137.284037,2.06715205 L134.443555,2.12557997 L134.443579,9.43859815 L132.060972,9.43859815 L132.060929,2.06936179 L129.237345,2.06938608 L129.237345,0.0567799691 L137.284037,0.0567799691 Z M87.0006942,0.0567799691 C88.1551646,0.0567799691 89.0747104,0.248239983 89.7620166,0.695717223 C90.5856007,1.23191948 91.0352267,2.11811996 91.0597519,3.40177739 C91.0842649,4.6847919 90.6407077,5.61784724 89.8036357,6.20981679 C89.1041276,6.70450238 88.1518278,6.94317156 87.0574272,6.95111993 L87.0006942,6.95132542 L85.5667735,6.9512527 L85.5668392,9.43859815 L83.1119471,9.43859815 L83.1119471,0.0567799691 L87.0006942,0.0567799691 Z M128.357801,0.0567799691 L128.357801,1.99534587 L123.456162,1.99532542 L123.456162,3.73772542 L127.899438,3.7377899 L127.899438,5.71629155 L123.456162,5.71627088 L123.456162,7.48107088 L128.50334,7.48110925 L128.50334,9.43859815 L120.895558,9.43859815 L120.895558,0.0567799691 L128.357801,0.0567799691 Z M103.012653,0.0567799691 L105.582268,0.0567799691 L109.54902,9.43413817 L106.896929,9.43413817 L106.258917,7.80310724 L102.141644,7.80310724 L101.55245,9.43413817 L98.8660451,9.43413817 L103.012653,0.0567799691 Z M31.3722988,2.59947088 L30.0663938,5.90572542 L32.6304358,5.90572542 L31.3722988,2.59947088 Z M104.231443,2.59947088 L102.925538,5.90572542 L105.48958,5.90572542 L104.231443,2.59947088 Z M41.6705928,1.96412542 L39.9998163,1.96412542 L39.9998163,4.89619815 L41.6823066,4.89625392 C42.7266173,4.89625392 43.3647969,4.34453197 43.3647969,3.43452169 C43.3647969,2.55313021 42.7154472,1.97575848 41.7014318,1.96429918 L41.6705928,1.96412542 Z M87.1111294,1.86187088 L85.5493634,1.86187088 L85.5493634,4.77096179 L87.1111294,4.77096179 C88.0700364,4.77096179 88.6948887,4.19087049 88.6948887,3.29636971 C88.6948887,2.44546393 88.0770519,1.87363158 87.1402054,1.86205013 L87.1111294,1.86187088 Z" id="LEARNINGPLANET" fill="#FFFFFF"></path>
                        <path d="M2.70069763,0.00587087817 L4.36769836,0.00587087817 L4.07401233,2.26681846 L5.85406889,2.26681846 L6.12891135,0.00587087817 L7.75732065,0.00587087817 L7.50503208,2.26681846 L9.29027237,2.26684267 L9.1122549,3.93043198 L7.28890321,3.93040439 L7.07736247,5.63684633 L8.84698244,5.63684934 L8.71239511,7.30922529 L6.87680545,7.30919669 L6.59289124,9.46041633 L4.94350795,9.46041633 L5.21068752,7.30919669 L3.45621327,7.30919669 L3.16578843,9.46041633 L1.49858984,9.46041633 L1.79579574,7.30919669 L0,7.30922529 L0.163064737,5.63684934 L1.99378063,5.63684633 L2.2074764,3.93040439 L0.410516148,3.93043198 L0.578231811,2.26684267 L2.39774489,2.26681846 L2.70069763,0.00587087817 Z M5.55953307,3.93314361 L3.8570057,3.93314361 L3.65758755,5.53314361 L5.37788886,5.53314361 L5.55953307,3.93314361 Z" id="#" fill="#9AC455"></path>
                    </g>
                    <text id="Powered-by" font-family="Poppins-SemiBold, Poppins" font-size="7.27272727" font-weight="500" letter-spacing="0.500731451" fill="#FFFFFF">
                        <tspan x="0" y="9.81818182">Powered by </tspan>
                    </text>
                </g>
            </g>
        </g>
    </g>
</svg>