<!--
OpenPantheon: the pantheon for Education
Copyright (C) 2021 CRI

This program is free software: you can redistribute it and/or modify
it under the terms of the GNU Affero General Public License as published
by the Free Software Foundation, either version 3 of the License, or
(at your option) any later version.

This program is distributed in the hope that it will be useful,
but WITHOUT ANY WARRANTY; without even the implied warranty of
MERCHANTABILITY or FITNESS FOR A PARTICULAR PURPOSE.  See the
GNU Affero General Public License for more details.

You should have received a copy of the GNU Affero General Public License
along with this program.  If not, see <https://www.gnu.org/licenses/>.
-->
<?xml version="1.0" encoding="UTF-8"?>
<svg width="200px" height="441px" viewBox="0 0 200 441" version="1.1" xmlns="http://www.w3.org/2000/svg" xmlns:xlink="http://www.w3.org/1999/xlink">
    <title>63AA8612-AD0B-4771-BF58-A6B530023AF6@1,5x</title>
    <g id="Page-1" stroke="none" stroke-width="1" fill="none" fill-rule="evenodd">
        <g id="01_Home" transform="translate(-40.000000, -40.000000)">
            <g id="Logo" transform="translate(40.000000, 40.000000)">
                <g>
                    <text id="Open-Pantheon-Copy" font-family="ApfelGrotezk-Fett, Apfel Grotezk" font-size="24" font-weight="bold" fill="#FFFFFF">
                        <tspan x="36" y="21">Open Pantheon</tspan>
                    </text>
                    <g id="Group">
                        <circle id="Oval" fill="#FFFFFF" cx="5.5" cy="5.5" r="5.5"></circle>
                        <circle id="Oval-Copy" fill="#61E987" cx="20.5" cy="5.5" r="5.5"></circle>
                        <circle id="Oval-Copy-2" fill="#61E987" cx="5.5" cy="19.5" r="5.5"></circle>
                        <circle id="Oval-Copy-3" fill="#61E987" cx="20.5" cy="19.5" r="5.5"></circle>
                    </g>
                </g>
                <g id="Logo-/-myLearningPlanet" transform="translate(0.000000, 428.000000)">
                    <g id="Group" transform="translate(50.963813, 0.000000)" fill-rule="nonzero">
                        <path d="M77.5650144,0 C79.1977084,0 80.5922691,0.425798166 81.3547738,1.26220649 L81.3786423,1.28875586 L81.4376064,1.35526763 L80.0713143,3.06394729 L79.9861145,2.97203031 C79.4048378,2.34492557 78.7095722,2.01527354 77.8329723,2.01527354 C76.0598134,2.01527354 75.0430027,3.01305647 75.0430027,4.67589646 L75.0432896,4.75219077 L75.0441862,4.82539774 L75.0457467,4.89569741 C75.0460651,4.90718175 75.0464134,4.91855246 75.0467928,4.92981328 L75.0494503,4.99608959 C75.0499583,5.00692588 75.0504995,5.01765978 75.0510752,5.02829506 L75.0549513,5.09095312 C75.0858184,5.53195037 75.184476,5.80444894 75.4404148,6.20667636 C75.8548792,6.85803889 76.4688074,7.22346438 77.4131546,7.35995838 C77.8080856,7.4170409 78.2458681,7.36420473 78.6627112,7.23229156 C78.8293025,7.17957246 78.9831727,7.11659013 79.105151,7.05337036 C79.1230831,7.0440764 79.1400382,7.03488196 79.1558505,7.02595534 L79.185902,7.00850905 L79.2126106,6.99207608 C79.2209236,6.98680055 79.2286302,6.98174377 79.2356813,6.9769556 L79.254819,6.96344679 L79.2672615,6.95377609 L79.2672741,4.56968841 L81.4052832,4.56968841 L81.4052832,8.25278334 L81.3524411,8.28360067 C80.0149917,9.06359558 78.7101559,9.45454545 77.4388772,9.45454545 C74.6197497,9.45454545 72.5534965,7.40964803 72.5534965,4.67589646 C72.5534965,2.00528835 74.7409214,0 77.5650144,0 Z M12.9494288,0.0567799691 L12.9494048,2.96033122 L12.9493681,7.39270724 L16.9195447,7.39277262 L16.9195447,9.44041151 L10.454421,9.44041151 L10.454421,0.0567799691 L12.9494288,0.0567799691 Z M47.5207774,0.0567799691 L49.7694436,0.0567799691 L54.0173767,5.69590724 L54.0174218,0.0567799691 L56.337957,0.0567799691 L56.337957,9.44001002 L54.1865925,9.44001002 L49.8243712,3.79692542 L49.8243766,9.44001002 L47.5207774,9.44001002 L47.5207774,0.0567799691 Z M62.5231121,0.0567799691 L64.7717782,0.0567799691 L69.0197113,5.69590724 L69.0197564,0.0567799691 L71.3402917,0.0567799691 L71.3402917,9.44001002 L69.1889272,9.44001002 L64.8267058,3.79692542 L64.8267112,9.44001002 L62.5231121,9.44001002 L62.5231121,0.0567799691 Z M25.5685709,0.0567799691 L25.5685709,1.99534587 L20.6408591,1.99532542 L20.6408591,3.73772542 L25.1077694,3.7377899 L25.1077694,5.71629155 L20.6408591,5.71627088 L20.6408591,7.48107088 L25.714884,7.48110925 L25.714884,9.43859815 L18.066635,9.43859815 L18.066635,0.0567799691 L25.5685709,0.0567799691 Z M60.6494381,0.0567799691 L60.6494381,9.43859815 L58.2225899,9.43859815 L58.2225899,0.0567799691 L60.6494381,0.0567799691 Z M37.7466093,0.0567799691 L41.5294039,0.0567799691 C42.7617914,0.0567799691 43.7109067,0.206669395 44.4598109,0.603112126 C45.4233123,1.11315484 45.9472519,2.00216042 45.9472519,3.33868793 C45.9472519,4.17317912 45.7568548,4.82600724 45.3922682,5.35030904 C45.1308081,5.7263075 44.8011678,6.0183042 44.3412795,6.31335294 L44.2963655,6.3419185 L44.2568136,6.36659815 L46.2413252,9.4357288 L43.3979611,9.4357288 L42.0342619,6.79837997 L40.217435,6.79837997 L40.2174975,9.4357288 L37.7466093,9.4357288 M30.3139002,0.0567799691 L32.8971832,0.0567799691 L36.8850354,9.43413817 L34.218837,9.43413817 L33.5774311,7.80310724 L29.4382576,7.80310724 L28.8459298,9.43413817 L26.1452357,9.43413817 L30.3139002,0.0567799691 Z M95.2416467,0.0567799691 L95.241586,7.39270724 L99.2117626,7.39277262 L99.2117626,9.44041151 L92.7466389,9.44041151 L92.7466389,0.0567799691 L95.2416467,0.0567799691 Z M110.839454,0.0567799691 L113.088121,0.0567799691 L117.336054,5.69590724 L117.336099,0.0567799691 L119.656634,0.0567799691 L119.656634,9.44001002 L117.50527,9.44001002 L113.143048,3.79692542 L113.143054,9.44001002 L110.839454,9.44001002 L110.839454,0.0567799691 Z M138.014272,0.0567799691 L138.014272,2.06715205 L135.15868,2.12557997 L135.158705,9.43859815 L132.763424,9.43859815 L132.763381,2.06936179 L129.924777,2.06938608 L129.924777,0.0567799691 L138.014272,0.0567799691 Z M87.4634638,0.0567799691 C88.6240751,0.0567799691 89.5485121,0.248239983 90.2394742,0.695717223 C91.067439,1.23191948 91.5194566,2.11811996 91.5441123,3.40177739 C91.5687557,4.6847919 91.1228391,5.61784724 90.2813146,6.20981679 C89.5780857,6.70450238 88.6207205,6.94317156 87.5204987,6.95111993 L87.4634638,6.95132542 L86.021916,6.9512527 L86.021982,9.43859815 L83.5540319,9.43859815 L83.5540319,0.0567799691 L87.4634638,0.0567799691 Z M129.040555,0.0567799691 L129.040555,1.99534587 L124.112844,1.99532542 L124.112844,3.73772542 L128.579754,3.7377899 L128.579754,5.71629155 L124.112844,5.71627088 L124.112844,7.48107088 L129.186868,7.48110925 L129.186868,9.43859815 L121.538619,9.43859815 L121.538619,0.0567799691 L129.040555,0.0567799691 Z M103.560593,0.0567799691 L106.143876,0.0567799691 L110.131728,9.43413817 L107.46553,9.43413817 L106.824124,7.80310724 L102.68495,7.80310724 L102.092622,9.43413817 L99.3919284,9.43413817 L103.560593,0.0567799691 Z M31.5391728,2.59947088 L30.2263214,5.90572542 L32.8040019,5.90572542 L31.5391728,2.59947088 Z M104.785865,2.59947088 L103.473014,5.90572542 L106.050695,5.90572542 L104.785865,2.59947088 Z M41.8922449,1.96412542 L40.2125813,1.96412542 L40.2125813,4.89619815 L41.904021,4.89625392 C42.9538866,4.89625392 43.5954607,4.34453197 43.5954607,3.43452169 C43.5954607,2.55313021 42.942657,1.97575848 41.923248,1.96429918 L41.8922449,1.96412542 Z M87.5744865,1.86187088 L86.0044132,1.86187088 L86.0044132,4.77096179 L87.5744865,4.77096179 C88.538494,4.77096179 89.16667,4.19087049 89.16667,3.29636971 C89.16667,2.44546393 88.5455469,1.87363158 87.6037172,1.86205013 L87.5744865,1.86187088 Z" id="LEARNINGPLANET" fill="#FFFFFF"></path>
                        <path d="M2.71506304,0.00587087817 L4.3909308,0.00587087817 L4.0956826,2.26681846 L5.88520756,2.26681846 L6.16151194,0.00587087817 L7.79858299,0.00587087817 L7.54495246,2.26681846 L9.33968872,2.26684267 L9.16072434,3.93043198 L7.32767397,3.93040439 L7.11500802,5.63684633 L8.89404086,5.63684934 L8.75873764,7.30922529 L6.9133842,7.30919669 L6.62795981,9.46041633 L4.9698032,9.46041633 L5.23840394,7.30919669 L3.47459738,7.30919669 L3.18262773,9.46041633 L1.50656106,9.46041633 L1.80534785,7.30919669 L0,7.30922529 L0.163932103,5.63684934 L2.00438585,5.63684633 L2.2192183,3.93040439 L0.412699744,3.93043198 L0.581307512,2.26684267 L2.41049885,2.26681846 L2.71506304,0.00587087817 Z M5.58910506,3.93314361 L3.87752168,3.93314361 L3.6770428,5.53314361 L5.40649465,5.53314361 L5.58910506,3.93314361 Z" id="#" fill="#9AC455"></path>
                    </g>
                    <text id="Powered-by" font-family="Poppins-SemiBold, Poppins" font-size="7.27272727" font-weight="500" letter-spacing="0.500731451" fill="#FFFFFF">
                        <tspan x="0" y="9.81818182">Powered by </tspan>
                    </text>
                </g>
            </g>
        </g>
    </g>
</svg>