<?xml version="1.0" encoding="UTF-8"?>
<svg width="166px" height="115px" viewBox="0 0 166 115" version="1.1" xmlns="http://www.w3.org/2000/svg" xmlns:xlink="http://www.w3.org/1999/xlink">
    <title>577663B2-8955-4432-B8C9-C5E96326C11C@1,5x</title>
    <defs>
        <filter color-interpolation-filters="auto" id="filter-1">
            <feColorMatrix in="SourceGraphic" type="matrix" values="0 0 0 0 0.125490 0 0 0 0 0.129412 0 0 0 0 0.215686 0 0 0 1.000000 0"></feColorMatrix>
        </filter>
    </defs>
    <g id="Page-1" stroke="none" stroke-width="1" fill="none" fill-rule="evenodd">
        <g id="01_MyPantheon" transform="translate(-640.000000, -265.000000)">
            <g id="EmptyMyPantheon" transform="translate(40.000000, 239.000000)">
                <g id="Group-6" transform="translate(600.000000, 26.000000)">
                    <circle id="Oval-Copy-12" fill="#61E987" opacity="0.571987334" cx="117" cy="17" r="17"></circle>
                    <circle id="Oval-Copy-15" fill="#61E987" opacity="0.362062" cx="43" cy="98" r="17"></circle>
                    <circle id="Oval-Copy-14" fill="#61E987" opacity="0.30431257" cx="73" cy="34" r="17"></circle>
                    <circle id="Oval-Copy-16" fill="#61E987" opacity="0.362062" cx="17" cy="41" r="17"></circle>
                    <circle id="Oval-Copy-13" fill="#61E987" opacity="0.270130702" cx="149" cy="51" r="17"></circle>
                    <g filter="url(#filter-1)" id="noun_Binoculars_3370615">
                        <g transform="translate(37.000000, 34.000000)">
                            <path d="M81.7312858,29.4937748 C81.7054208,29.4274176 81.6795559,29.3620658 81.642748,29.2987248 L71.3763483,10.8363356 C71.3683898,10.820249 71.3584418,10.8051678 71.3504833,10.7890812 L71.0142388,10.2361044 C70.8968517,10.0440706 70.7356931,9.88018835 70.5446903,9.76154968 C70.0462924,9.45288805 69.5329725,9.17438879 69.011694,8.91800861 L69.011694,4.31020326 C69.011694,1.93340818 67.0976869,0 64.7469599,0 L55.2415869,0 C52.8898651,0 50.9768529,1.93441359 50.9768529,4.31020326 L50.9768529,9.4086499 C50.9768529,9.60369992 51.0156503,9.7876904 51.0832971,9.9565997 C50.6634889,10.2310773 50.2516392,10.5206361 49.8497375,10.8313085 C49.8338206,10.8443789 49.8188985,10.8574493 49.8029816,10.8685088 C49.3732253,11.2324681 49.1822225,11.7723746 49.2060979,12.5626288 L49.2060979,19.6769275 L36.794896,19.6769275 L36.794896,12.5626288 C36.8187714,11.7693584 36.6277686,11.2294519 36.1980123,10.8654926 C36.1820954,10.8524222 36.1671733,10.8393518 36.1512564,10.8282923 C35.7493547,10.5176199 35.337505,10.2280611 34.9176968,9.95358346 C34.9853436,9.78467416 35.024141,9.60068368 35.024141,9.40563366 L35.024141,4.31020326 C35.024141,1.93340818 33.1101339,0 30.759407,0 L21.2540339,0 C18.9023121,0 16.9892999,1.93441359 16.9892999,4.31020326 L16.9892999,8.91599779 C16.4680214,9.17137256 15.9547014,9.45389346 15.4563036,9.75953885 C15.2633112,9.87817752 15.1041422,10.0410543 14.986755,10.2340935 L14.6505105,10.7870704 C14.6405625,10.803157 14.632604,10.8182382 14.6246456,10.8343248 L4.49950833,29.0453609 C4.43981996,29.1509292 4.3980381,29.2615245 4.36918872,29.3721199 C1.64441461,32.6155805 0,36.8131776 0,41.391826 C0,51.649044 8.25888087,59.9959784 18.4078935,59.9959784 C28.0376173,59.9959784 35.9632381,52.4845418 36.7501297,42.954237 C36.7809687,42.8386145 36.7968856,42.7169596 36.7968856,42.5902777 L36.7968856,42.1820802 C36.8068337,41.9216784 36.8147921,41.6582603 36.8147921,41.391826 C36.8147921,41.1253917 36.8068337,40.8649899 36.7968856,40.6015718 L36.7968856,37.3500679 L49.2031134,37.3500679 L49.2031134,40.6065989 C49.1931654,40.8670007 49.1852069,41.1304188 49.1852069,41.3948422 C49.1852069,41.6592657 49.1931654,41.9216784 49.2031134,42.1830856 L49.2031134,42.5942993 C49.2031134,42.7209813 49.22102,42.8416308 49.2498693,42.9582586 C50.036761,52.4885634 57.9623818,60 67.5921056,60 C77.7411182,60 86,51.6530657 86,41.3958476 C86.0009939,36.8704861 84.3953767,32.7211489 81.7312858,29.4937748 Z M76,25.1863948 C73.4924925,23.8817711 70.6566567,23.1478561 67.6556557,23.1478561 C61.0770771,23.1478561 55.2872873,26.6850184 52,32 L52,12.9048663 C54.6256256,11.0007932 57.7237237,10 60.994995,10 C63.7597598,10 66.4674675,10.7482854 68.8518519,12.167872 L68.993994,12.4019036 L76,25.1863948 Z M54.0009648,4.54035275 C54.0009648,3.69160877 54.6251809,3 55.3912205,3 L64.6097443,3 C65.3757839,3 66,3.69160877 66,4.54035275 L66,8.26028862 C64.3695128,7.72795297 62.6705258,7.45109567 60.9532079,7.45109567 C58.5209841,7.45109567 56.1717318,7.98022448 54,9 L54,4.54035275 L54.0009648,4.54035275 Z M20.0009648,4.54117647 C20.0009648,3.69197861 20.6251809,3 21.3912205,3 L30.6097443,3 C31.3757839,3 32,3.69197861 32,4.54117647 L32,9 C29.8282682,7.97967914 27.4790159,7.45026738 25.0467921,7.45026738 C23.330439,7.45026738 21.631452,7.72727273 20,8.25989305 L20,4.54117647 L20.0009648,4.54117647 Z M17.0038794,12.4017915 L17.1460393,12.1677708 C19.5307221,10.7503033 22.2387686,10 25.0038794,10 C28.27556,10 31.3710424,11.0027993 34,12.9047308 L34,32 C30.7123013,26.6852664 24.9227881,23.1482691 18.3423852,23.1482691 C15.344012,23.1482691 12.5078213,23.8821499 10,25.1867127 L17.0038794,12.4017915 Z M18.5089143,57 C9.95910282,57 3,50.0478669 3,41.5 C3,32.9521331 9.95613138,26 18.5089143,26 C26.8150681,26 33.6176753,32.560129 34,40.7714267 L34,42.2295632 C33.6176753,50.4369013 26.8150681,57 18.5089143,57 Z M37,35 L37,23 L49,23 L49,35 L37,35 Z M67.4910857,57 C59.1819605,57 52.3823247,50.4369013 52,42.2265934 L52,40.7734066 C52.3813343,32.5630987 59.1819605,26 67.4910857,26 C76.0408972,26 83,32.9521331 83,41.5 C83,50.0478669 76.0418877,57 67.4910857,57 Z" id="Shape" fill="#000000" fill-rule="nonzero"></path>
                            <path d="M18,29 C11.3841239,29 6,34.6053903 6,41.5 C6,48.3946097 11.3811747,54 18,54 C24.6188253,54 30,48.3946097 30,41.5 C30,34.6053903 24.6158761,29 18,29 Z M18,51 C13.0374012,51 9,46.7382988 9,41.5 C9,36.2617012 13.0374012,32 18,32 C22.9625988,32 27,36.2617012 27,41.5 C27,46.7382988 22.9625988,51 18,51 Z" id="Shape" fill="#000000" fill-rule="nonzero"></path>
                            <path d="M17.3481053,34 C16.6034737,34 16,34.6705263 16,35.4978947 C16,36.3252632 16.6034737,36.9957895 17.3481053,36.9957895 C20.0812632,36.9957895 22.3037895,39.4642105 22.3037895,42.5021053 C22.3037895,43.3294737 22.9072632,44 23.6518947,44 C24.3965263,44 25,43.3294737 25,42.5021053 C24.9990526,37.8157895 21.5657895,34 17.3481053,34 Z" id="Path" fill="#000000" fill-rule="nonzero"></path>
                            <path d="M67,29 C60.3841239,29 55,34.6053903 55,41.5 C55,48.3946097 60.3811747,54 67,54 C73.6188253,54 79,48.3946097 79,41.5 C79,34.6053903 73.6158761,29 67,29 Z M67,51 C62.0374012,51 58,46.7382988 58,41.5 C58,36.2617012 62.0374012,32 67,32 C71.9625988,32 76,36.2617012 76,41.5 C76,46.7382988 71.9625988,51 67,51 Z" id="Shape" fill="#000000" fill-rule="nonzero"></path>
                            <path d="M66.3481051,34 C65.6034736,34 65,34.6705263 65,35.4978947 C65,36.3252632 65.6034736,36.9957895 66.3481051,36.9957895 C69.0812628,36.9957895 71.3037889,39.4642105 71.3037889,42.5021053 C71.3037889,43.3294737 71.9072626,44 72.6518941,44 C73.3965256,44 74,43.3294737 74,42.5021053 C74.001894,37.8157895 70.5686311,34 66.3481051,34 Z" id="Path" fill="#000000" fill-rule="nonzero"></path>
                        </g>
                    </g>
                </g>
            </g>
        </g>
    </g>
</svg>