<?xml version="1.0" encoding="UTF-8"?>
<!--
OpenPantheon: the pantheon for Education
Copyright (C) 2022 Learning Planet Institute

This program is free software: you can redistribute it and/or modify
it under the terms of the GNU Affero General Public License as published
by the Free Software Foundation, either version 3 of the License, or
(at your option) any later version.

This program is distributed in the hope that it will be useful,
but WITHOUT ANY WARRANTY; without even the implied warranty of
MERCHANTABILITY or FITNESS FOR A PARTICULAR PURPOSE.  See the
GNU Affero General Public License for more details.

You should have received a copy of the GNU Affero General Public License
along with this program.  If not, see <https://www.gnu.org/licenses/>.
-->
<svg width="166" height="115" xmlns="http://www.w3.org/2000/svg"><defs><filter color-interpolation-filters="auto" id="a"><feColorMatrix in="SourceGraphic" values="0 0 0 0 0.125490 0 0 0 0 0.129412 0 0 0 0 0.215686 0 0 0 1.000000 0"/></filter></defs><g fill="none" fill-rule="evenodd"><circle fill="#61E987" opacity=".572" cx="117" cy="17" r="17"/><circle fill="#61E987" opacity=".362" cx="43" cy="98" r="17"/><circle fill="#61E987" opacity=".304" cx="73" cy="34" r="17"/><circle fill="#61E987" opacity=".362" cx="17" cy="41" r="17"/><circle fill="#61E987" opacity=".27" cx="149" cy="51" r="17"/><g filter="url(#a)"><g fill="#000" fill-rule="nonzero"><path d="M118.731 63.494a1.366 1.366 0 0 0-.088-.195l-10.267-18.463c-.008-.016-.018-.03-.026-.047l-.336-.553a1.449 1.449 0 0 0-.47-.474 17.967 17.967 0 0 0-1.532-.844V38.31c0-2.377-1.914-4.31-4.265-4.31h-9.505c-2.352 0-4.265 1.934-4.265 4.31v5.099c0 .195.039.379.106.548-.42.274-.831.564-1.233.874l-.047.038c-.43.363-.62.903-.597 1.694v7.114H73.795v-7.114c.024-.794-.167-1.334-.597-1.698-.016-.013-.03-.026-.047-.037-.402-.31-.813-.6-1.233-.874.067-.17.106-.353.106-.548V38.31c0-2.377-1.914-4.31-4.265-4.31h-9.505c-2.352 0-4.265 1.934-4.265 4.31v4.606a18.54 18.54 0 0 0-1.533.844 1.42 1.42 0 0 0-.47.474l-.335.553a.554.554 0 0 0-.026.047L41.5 63.045c-.06.106-.102.217-.13.327A18.631 18.631 0 0 0 37 75.392c0 10.257 8.259 18.604 18.408 18.604 9.63 0 17.555-7.511 18.342-17.042.031-.115.047-.237.047-.364v-.408c.01-.26.018-.524.018-.79a20.8 20.8 0 0 0-.018-.79V71.35h12.406v3.257c-.01.26-.018.523-.018.788 0 .264.008.527.018.788v.411c0 .127.018.248.047.364C87.037 86.488 94.962 94 104.592 94 114.742 94 123 85.653 123 75.396a18.632 18.632 0 0 0-4.269-11.902ZM113 59.186a18.02 18.02 0 0 0-8.344-2.038C98.077 57.148 92.287 60.685 89 66V46.905A15.192 15.192 0 0 1 97.995 44c2.765 0 5.472.748 7.857 2.168l.142.234L113 59.186ZM91.001 38.54c0-.848.624-1.54 1.39-1.54h9.219c.766 0 1.39.692 1.39 1.54v3.72A16.276 16.276 0 0 0 91 43v-4.46h.001Zm-34 .001c0-.849.624-1.541 1.39-1.541h9.219c.766 0 1.39.692 1.39 1.541V43a16.269 16.269 0 0 0-12-.74V38.54h.001Zm-2.997 7.86.142-.233A15.367 15.367 0 0 1 62.004 44c3.272 0 6.367 1.003 8.996 2.905V66c-3.288-5.315-9.077-8.852-15.658-8.852-2.998 0-5.834.734-8.342 2.039l7.004-12.785ZM55.509 91C46.959 91 40 84.048 40 75.5S46.956 60 55.509 60C63.815 60 70.618 66.56 71 74.771v1.459C70.618 84.437 63.815 91 55.509 91ZM74 69V57h12v12H74Zm30.491 22C96.182 91 89.382 84.437 89 76.227v-1.454C89.381 66.563 96.182 60 104.491 60 113.041 60 120 66.952 120 75.5S113.042 91 104.491 91Z"/><path d="M55 63c-6.616 0-12 5.605-12 12.5S48.381 88 55 88s12-5.605 12-12.5S61.616 63 55 63Zm0 22c-4.963 0-9-4.262-9-9.5s4.037-9.5 9-9.5 9 4.262 9 9.5-4.037 9.5-9 9.5Z"/><path d="M54.348 68c-.745 0-1.348.67-1.348 1.498 0 .827.603 1.498 1.348 1.498 2.733 0 4.956 2.468 4.956 5.506 0 .827.603 1.498 1.348 1.498.745 0 1.348-.67 1.348-1.498C62 71.816 58.566 68 54.348 68ZM104 63c-6.616 0-12 5.605-12 12.5S97.381 88 104 88s12-5.605 12-12.5S110.616 63 104 63Zm0 22c-4.963 0-9-4.262-9-9.5s4.037-9.5 9-9.5 9 4.262 9 9.5-4.037 9.5-9 9.5Z"/><path d="M103.348 68c-.745 0-1.348.67-1.348 1.498 0 .827.603 1.498 1.348 1.498 2.733 0 4.956 2.468 4.956 5.506 0 .827.603 1.498 1.348 1.498.745 0 1.348-.67 1.348-1.498.002-4.686-3.431-8.502-7.652-8.502Z"/></g></g></g></svg>