<?xml version="1.0" encoding="UTF-8"?>
<!--
OpenPantheon: the pantheon for Education
Copyright (C) 2021 CRI

This program is free software: you can redistribute it and/or modify
it under the terms of the GNU Affero General Public License as published
by the Free Software Foundation, either version 3 of the License, or
(at your option) any later version.

This program is distributed in the hope that it will be useful,
but WITHOUT ANY WARRANTY; without even the implied warranty of
MERCHANTABILITY or FITNESS FOR A PARTICULAR PURPOSE.  See the
GNU Affero General Public License for more details.

You should have received a copy of the GNU Affero General Public License
along with this program.  If not, see <https://www.gnu.org/licenses/>.
-->
<svg width="56" height="56" xmlns="http://www.w3.org/2000/svg"><path d="M28 0c15.464 0 28 12.536 28 28S43.464 56 28 56 0 43.464 0 28 12.536 0 28 0Zm3.727 10c-5.12 0-8.428 3.477-8.428 8.86v4.085h-4.582a.726.726 0 0 0-.717.734v5.919c0 .405.321.734.717.734h4.582v14.934c0 .406.32.734.716.734h5.979a.725.725 0 0 0 .716-.734V30.332h5.358a.725.725 0 0 0 .716-.734l.002-5.919a.744.744 0 0 0-.21-.52.708.708 0 0 0-.506-.214h-5.36v-3.463c0-1.665.387-2.51 2.504-2.51h3.07a.725.725 0 0 0 .716-.735v-5.495a.726.726 0 0 0-.715-.735L31.727 10Z" fill="#FFF" fill-rule="evenodd"/></svg>