<?xml version="1.0" encoding="UTF-8"?>
<svg width="56px" height="56px" viewBox="0 0 56 56" version="1.1" xmlns="http://www.w3.org/2000/svg" xmlns:xlink="http://www.w3.org/1999/xlink">
    <title>78727F9C-D603-4164-BED4-FBDCF60C5225@1,5x</title>
    <g id="Page-1" stroke="none" stroke-width="1" fill="none" fill-rule="evenodd">
        <g id="02_Home" transform="translate(-788.000000, -3004.000000)" fill="#FFFFFF">
            <g id="Footer" transform="translate(0.000000, 2816.000000)">
                <g id="Socials" transform="translate(596.000000, 188.000000)">
                    <path d="M220,56 C235.463973,56 248,43.463973 248,28 C248,12.536027 235.463973,0 220,0 C204.536027,0 192,12.536027 192,28 C192,43.463973 204.536027,56 220,56 Z M232.286257,14 L207.713743,14 C206.215,14 205,15.215 205,16.7137435 L205,41.286178 C205,42.785 206.215,44 207.713743,44 L232.286178,44 C233.785,44 235,42.785 235,41.286178 L235,16.7137435 C235,15.215 233.785,14 232.286257,14 Z M214.283272,39.9039791 C214.283272,40.3401571 213.929712,40.6937173 213.493534,40.6937173 L210.131806,40.6937173 C209.695628,40.6937173 209.342068,40.3401571 209.342068,39.9039791 L209.342068,25.8117539 C209.342068,25.3755759 209.695628,25.0220157 210.131806,25.0220157 L213.493534,25.0220157 C213.929712,25.0220157 214.283272,25.3755759 214.283272,25.8117539 L214.283272,39.9039791 Z M211.81267,23.6936126 C210.048874,23.6936126 208.619005,22.2637435 208.619005,20.4999476 C208.619005,18.7361518 210.048874,17.3062827 211.81267,17.3062827 C213.576466,17.3062827 215.006335,18.7361518 215.006335,20.4999476 C215.006335,22.2637435 213.576545,23.6936126 211.81267,23.6936126 Z M231.851573,39.9675916 C231.851573,40.3685864 231.52644,40.6937173 231.125445,40.6937173 L227.518063,40.6937173 C227.117068,40.6937173 226.791937,40.3685864 226.791937,39.9675916 L226.791937,33.3575393 C226.791937,32.371466 227.081178,29.0365183 224.215,29.0365183 C221.99178,29.0365183 221.540838,31.3191885 221.450288,32.3435864 L221.450288,39.9675916 C221.450288,40.3685864 221.125236,40.6937173 220.724162,40.6937173 L217.235209,40.6937173 C216.834215,40.6937173 216.509084,40.3685864 216.509084,39.9675916 L216.509084,25.7481414 C216.509084,25.3471466 216.834215,25.0220157 217.235209,25.0220157 L220.724162,25.0220157 C221.125157,25.0220157 221.450288,25.3471466 221.450288,25.7481414 L221.450288,26.9775916 C222.27466,25.740445 223.499791,24.7855497 226.108298,24.7855497 C231.884634,24.7855497 231.851573,30.1820942 231.851573,33.1472251 L231.851573,39.9675916 L231.851573,39.9675916 Z" id="LinkedIn"></path>
                </g>
            </g>
        </g>
    </g>
</svg>