<?xml version="1.0" encoding="UTF-8"?>
<!--
OpenPantheon: the pantheon for Education
Copyright (C) 2022 Learning Planet Institute

This program is free software: you can redistribute it and/or modify
it under the terms of the GNU Affero General Public License as published
by the Free Software Foundation, either version 3 of the License, or
(at your option) any later version.

This program is distributed in the hope that it will be useful,
but WITHOUT ANY WARRANTY; without even the implied warranty of
MERCHANTABILITY or FITNESS FOR A PARTICULAR PURPOSE.  See the
GNU Affero General Public License for more details.

You should have received a copy of the GNU Affero General Public License
along with this program.  If not, see <https://www.gnu.org/licenses/>.
-->
<svg width="56" height="56" xmlns="http://www.w3.org/2000/svg"><path d="M28 56c15.464 0 28-12.536 28-28S43.464 0 28 0 0 12.536 0 28s12.536 28 28 28Zm12.286-42H15.714A2.714 2.714 0 0 0 13 16.714v24.572A2.714 2.714 0 0 0 15.714 44h24.572A2.714 2.714 0 0 0 43 41.286V16.714A2.714 2.714 0 0 0 40.286 14ZM22.283 39.904a.79.79 0 0 1-.79.79h-3.361a.79.79 0 0 1-.79-.79V25.812a.79.79 0 0 1 .79-.79h3.362a.79.79 0 0 1 .79.79v14.092Zm-2.47-16.21a3.194 3.194 0 1 1 0-6.388 3.194 3.194 0 0 1 0 6.388Zm20.039 16.274a.726.726 0 0 1-.727.726h-3.607a.726.726 0 0 1-.726-.726v-6.61c0-.987.29-4.321-2.577-4.321-2.223 0-2.674 2.282-2.765 3.307v7.624a.726.726 0 0 1-.726.726h-3.489a.726.726 0 0 1-.726-.726v-14.22c0-.4.325-.726.726-.726h3.49c.4 0 .725.325.725.726v1.23c.825-1.238 2.05-2.192 4.658-2.192 5.777 0 5.744 5.396 5.744 8.361v6.82Z" fill="#FFF" fill-rule="evenodd"/></svg>