<?xml version="1.0" encoding="UTF-8"?>
<!--
OpenPantheon: the pantheon for Education
Copyright (C) 2022 Learning Planet Institute

This program is free software: you can redistribute it and/or modify
it under the terms of the GNU Affero General Public License as published
by the Free Software Foundation, either version 3 of the License, or
(at your option) any later version.

This program is distributed in the hope that it will be useful,
but WITHOUT ANY WARRANTY; without even the implied warranty of
MERCHANTABILITY or FITNESS FOR A PARTICULAR PURPOSE.  See the
GNU Affero General Public License for more details.

You should have received a copy of the GNU Affero General Public License
along with this program.  If not, see <https://www.gnu.org/licenses/>.
-->
<svg width="56" height="56" xmlns="http://www.w3.org/2000/svg"><path d="M28 0c15.464 0 28 12.536 28 28S43.464 56 28 56 0 43.464 0 28 12.536 0 28 0Zm6.329 14c-4.025 0-7.3 3.293-7.3 7.341 0 .32.02.636.06.949a18.654 18.654 0 0 1-12.825-6.844.546.546 0 0 0-.899.07 7.371 7.371 0 0 0-.988 3.692 7.36 7.36 0 0 0 1.737 4.76 6.165 6.165 0 0 1-.977-.44.545.545 0 0 0-.539.004.552.552 0 0 0-.276.466v.098a7.376 7.376 0 0 0 3.573 6.314 6.258 6.258 0 0 1-.556-.081.546.546 0 0 0-.513.176.554.554 0 0 0-.112.534 7.313 7.313 0 0 0 5.347 4.92 12.857 12.857 0 0 1-6.902 1.982c-.517 0-1.037-.03-1.546-.091a.553.553 0 0 0-.36 1.012A19.6 19.6 0 0 0 21.895 42c7.431 0 12.08-3.525 14.671-6.482 3.231-3.687 5.084-8.567 5.084-13.389 0-.201-.003-.405-.009-.608a14.238 14.238 0 0 0 3.265-3.479.554.554 0 0 0-.036-.661.546.546 0 0 0-.642-.15 12.84 12.84 0 0 1-1.644.603 7.323 7.323 0 0 0 1.48-2.618.554.554 0 0 0-.18-.6.546.546 0 0 0-.622-.042 12.897 12.897 0 0 1-3.825 1.52A7.313 7.313 0 0 0 34.328 14Z" fill="#FFF" fill-rule="evenodd"/></svg>