<!--
OpenPantheon: the pantheon for Education
Copyright (C) 2021 CRI

This program is free software: you can redistribute it and/or modify
it under the terms of the GNU Affero General Public License as published
by the Free Software Foundation, either version 3 of the License, or
(at your option) any later version.

This program is distributed in the hope that it will be useful,
but WITHOUT ANY WARRANTY; without even the implied warranty of
MERCHANTABILITY or FITNESS FOR A PARTICULAR PURPOSE.  See the
GNU Affero General Public License for more details.

You should have received a copy of the GNU Affero General Public License
along with this program.  If not, see <https://www.gnu.org/licenses/>.
-->
<?xml version="1.0" encoding="UTF-8"?>
<svg width="56px" height="56px" viewBox="0 0 56 56" version="1.1" xmlns="http://www.w3.org/2000/svg" xmlns:xlink="http://www.w3.org/1999/xlink">
    <title>8154CF7A-42CD-4D2F-885B-DFE78BDCDAF7@1,5x</title>
    <g id="Page-1" stroke="none" stroke-width="1" fill="none" fill-rule="evenodd">
        <g id="02_Home" transform="translate(-692.000000, -3004.000000)" fill="#FFFFFF">
            <g id="Footer" transform="translate(0.000000, 2816.000000)">
                <g id="Socials" transform="translate(596.000000, 188.000000)">
                    <path d="M124,0 C139.463973,0 152,12.536027 152,28 C152,43.463973 139.463973,56 124,56 C108.536027,56 96,43.463973 96,28 C96,12.536027 108.536027,0 124,0 Z M130.328773,14 C126.304173,14 123.029874,17.2933973 123.029874,21.341497 C123.029874,21.6603232 123.049945,21.9773843 123.089648,22.2900325 C118.095503,21.8489713 113.452544,19.3798886 110.264232,15.4459705 C110.150606,15.3057532 109.975562,15.2301837 109.79635,15.2446357 C109.617028,15.2587567 109.455912,15.3604722 109.365319,15.5167963 C108.718663,16.6329086 108.376799,17.9094269 108.376799,19.2082299 C108.376799,20.9772188 109.004701,22.6556346 110.113865,23.9671245 C109.776608,23.8496332 109.449331,23.7027966 109.136971,23.5283799 C108.969275,23.4344972 108.764617,23.4359314 108.598018,23.5320205 C108.431309,23.6281097 108.326787,23.8048431 108.3224,23.9980142 C108.321632,24.0305588 108.321632,24.0631033 108.321632,24.0960891 C108.321632,26.7366099 109.734492,29.1139059 111.894581,30.4096199 C111.709008,30.3909758 111.523544,30.3639473 111.339286,30.3285344 C111.149326,30.2920183 110.953991,30.3589828 110.825888,30.5047162 C110.697566,30.6503392 110.655121,30.8533289 110.714237,31.0386673 C111.513783,33.5495615 113.572311,35.3964366 116.060884,35.9595124 C113.996871,37.2598599 111.636511,37.9409785 109.158687,37.9409785 C108.641669,37.9409785 108.121691,37.9104198 107.612789,37.8498538 C107.359983,37.819626 107.118255,37.9697722 107.032159,38.2115947 C106.946062,38.4535275 107.037313,38.7232611 107.25239,38.8619339 C110.435547,40.9148877 114.1162,42 117.89622,42 C125.327279,42 129.975942,38.4752606 132.567062,35.5183408 C135.798148,31.83132 137.651252,26.9510729 137.651252,22.129075 C137.651252,21.9276298 137.648181,21.7241988 137.642039,21.5214298 C138.916815,20.5553533 140.014354,19.3861768 140.907454,18.0423631 C141.043125,17.8382702 141.028428,17.5685366 140.871261,17.3806608 C140.714313,17.1926747 140.452733,17.1318881 140.229431,17.2313972 C139.695303,17.4696894 139.14615,17.6708037 138.585042,17.834078 C139.249356,17.0783827 139.755845,16.1891996 140.065025,15.216173 C140.13434,14.9980694 140.062502,14.7593359 139.884277,14.6166915 C139.706271,14.4739368 139.458949,14.4568371 139.262956,14.5736665 C138.071315,15.2845717 136.785681,15.7954658 135.43764,16.0942137 C134.079728,14.7595565 132.235399,14 130.328773,14 Z" id="Twitter"></path>
                </g>
            </g>
        </g>
    </g>
</svg>